# xmcd
#
# Track frame offsets:
#	150
#	10137
#	30217
#	45152
#	60945
#	78190
#	95360
#	112210
#	122705
#	134447
#	158697
#	174795
#	188097
#	204300
#	221492
#
# Disc length: 3525 seconds
#
# Revision: 1
# Processed by: cddbd v1.5.2PL0 Copyright (c) Steve Scherf et al.
# Submitted via: audiograbber 1.83.01
#
DISCID=ae0dc30f
DTITLE=тамиа тсамайкидоу (ALANTALON) - тяацоудиа тоу паяанемоу йослоу
DYEAR=1995
DGENRE=Folk
TTITLE0=г пакиа яутида
TTITLE1=г лама лоу стом оуяамо
TTITLE2=айаяиаиа
TTITLE3=пехулгса ема суммежо
TTITLE4=с' ема вяомо
TTITLE5=то тяацоуди тоу паяанемоу йослоу
TTITLE6=цежуяи неваслемо
TTITLE7=дяала намхг
TTITLE8=сйояпиа
TTITLE9=то тяацоуди тоу амдяеа
TTITLE10=ацояи
TTITLE11=еявесаи йаи жеуцеис
TTITLE12=то домти тоу похоу
TTITLE13=с' ема вяомо (оявгстяийо)
TTITLE14=паяанемос йослос (оявгстяийо)
EXTD=цъЫЯЦОР аМДЯщОУ - тэМИА тСАМАЙКъДОУ 1995
EXTT0=
EXTT1=
EXTT2=
EXTT3=
EXTT4=
EXTT5=
EXTT6=
EXTT7=
EXTT8=
EXTT9=
EXTT10=
EXTT11=
EXTT12=
EXTT13=
EXTT14=
PLAYORDER=
